<svg width="11" height="11" viewBox="0 0 11 11" fill="none" xmlns="http://www.w3.org/2000/svg">
<path d="M5.34544 2.25169L6.20481 1.39231C6.42826 1.16886 6.69354 0.991606 6.98549 0.870674C7.27745 0.749743 7.59036 0.6875 7.90637 0.6875C8.22238 0.6875 8.5353 0.749743 8.82725 0.870674C9.11921 0.991606 9.38448 1.16886 9.60793 1.39231C9.83139 1.61576 10.0086 1.88104 10.1296 2.17299C10.2505 2.46495 10.3127 2.77786 10.3127 3.09387C10.3127 3.40988 10.2505 3.7228 10.1296 4.01475C10.0086 4.30671 9.83139 4.57198 9.60793 4.79544L7.88919 6.51419C7.66574 6.73765 7.40047 6.91492 7.10851 7.03586C6.81656 7.1568 6.50364 7.21905 6.18762 7.21905C5.87161 7.21905 5.55869 7.1568 5.26673 7.03586C4.97478 6.91492 4.7095 6.73765 4.48606 6.51419C4.39487 6.41646 4.34519 6.28714 4.3475 6.1535C4.34981 6.01985 4.40392 5.89233 4.49844 5.79781C4.59295 5.7033 4.72048 5.64918 4.85412 5.64687C4.98777 5.64456 5.11708 5.69424 5.21481 5.78544C5.34251 5.91328 5.49416 6.0147 5.66108 6.08389C5.828 6.15309 6.00693 6.1887 6.18762 6.1887C6.36832 6.1887 6.54724 6.15309 6.71417 6.08389C6.88109 6.0147 7.03273 5.91328 7.16044 5.78544L8.87918 4.06669C9.12464 3.80616 9.25894 3.46026 9.25361 3.10236C9.24828 2.74446 9.10374 2.40271 8.85064 2.14961C8.59753 1.89651 8.25579 1.75196 7.89789 1.74663C7.53999 1.7413 7.19409 1.87561 6.93356 2.12106L6.07419 2.98044C5.97646 3.07163 5.84714 3.12131 5.7135 3.119C5.57985 3.11669 5.45233 3.06257 5.35781 2.96806C5.2633 2.87354 5.20918 2.74602 5.20687 2.61237C5.20457 2.47873 5.25424 2.34941 5.34544 2.25169ZM2.12106 8.87918C2.24876 9.00703 2.40041 9.10845 2.56733 9.17764C2.73425 9.24684 2.91318 9.28245 3.09387 9.28245C3.27457 9.28245 3.45349 9.24684 3.62042 9.17764C3.78734 9.10845 3.93898 9.00703 4.06669 8.87918L4.92606 8.01981C5.02379 7.92862 5.1531 7.87894 5.28675 7.88125C5.42039 7.88356 5.54792 7.93767 5.64244 8.03218C5.73695 8.1267 5.79106 8.25423 5.79337 8.38787C5.79568 8.52152 5.746 8.65084 5.65481 8.74856L4.79544 9.60793C4.57198 9.83139 4.30671 10.0086 4.01475 10.1296C3.7228 10.2505 3.40988 10.3127 3.09387 10.3127C2.77786 10.3127 2.46495 10.2505 2.17299 10.1296C1.88104 10.0086 1.61576 9.83139 1.39231 9.60793C1.16886 9.38448 0.991606 9.11921 0.870674 8.82725C0.749743 8.5353 0.6875 8.22238 0.6875 7.90637C0.6875 7.59036 0.749743 7.27745 0.870674 6.98549C0.991606 6.69354 1.16886 6.42826 1.39231 6.20481L3.11106 4.48606C3.3345 4.26259 3.59978 4.08533 3.89173 3.96439C4.18369 3.84345 4.49661 3.7812 4.81262 3.7812C5.12864 3.7812 5.44156 3.84345 5.73351 3.96439C6.02547 4.08533 6.29074 4.26259 6.51419 4.48606C6.60538 4.58379 6.65506 4.7131 6.65275 4.84675C6.65044 4.98039 6.59632 5.10792 6.50181 5.20244C6.40729 5.29695 6.27977 5.35106 6.14612 5.35337C6.01248 5.35568 5.88316 5.306 5.78544 5.21481C5.65773 5.08697 5.50609 4.98555 5.33917 4.91635C5.17224 4.84716 4.99332 4.81154 4.81262 4.81154C4.63193 4.81154 4.453 4.84716 4.28608 4.91635C4.11916 4.98555 3.96751 5.08697 3.83981 5.21481L2.12106 6.93356C1.99322 7.06126 1.8918 7.21291 1.8226 7.37983C1.75341 7.54675 1.71779 7.72568 1.71779 7.90637C1.71779 8.08707 1.75341 8.26599 1.8226 8.43292C1.8918 8.59984 1.99322 8.75148 2.12106 8.87918Z" fill="#72C0F4"/>
</svg>
